<svg
  fill="none"
  height="28"
  viewBox="0 0 28 20"
  xmlns="http://www.w3.org/2000/svg"
>
  <g clip-path="url(#a)">
    <path
      d="M16.12.606h-4.242a7.273 7.273 0 0 0-7.273 7.273v4.242a7.273 7.273 0 0 0 7.273 7.273h4.243a7.273 7.273 0 0 0 7.272-7.273V7.88A7.273 7.273 0 0 0 16.121.606Z"
      fill="url(#b)"
    ></path>
    <path
      d="M16.727.606h-5.455a6.667 6.667 0 0 0-6.667 6.667v5.454a6.667 6.667 0 0 0 6.667 6.667h5.455a6.667 6.667 0 0 0 6.666-6.667V7.273A6.667 6.667 0 0 0 16.727.606Z"
      stroke="url(#c)"
      stroke-width="1.212"
    ></path>
    <path
      clip-rule="evenodd"
      d="M14.982 5.906a.323.323 0 0 1 .155.367l-.856 3.139h3.123a.323.323 0 0 1 .236.542l-4.513 4.836a.321.321 0 0 1-.547-.305l.856-3.14h-3.124a.322.322 0 0 1-.235-.542l4.513-4.835a.322.322 0 0 1 .392-.062Z"
      fill="#fff"
      fill-rule="evenodd"
    ></path>
  </g>
  <defs>
    <linearGradient
      gradientUnits="userSpaceOnUse"
      id="b"
      x1="13.999"
      x2="13.999"
      y1="1.212"
      y2="18.788"
    >
      <stop stop-color="#262626"></stop>
      <stop offset="0.31" stop-color="#242424"></stop>
      <stop offset="0.665" stop-color="#1C1C1C"></stop>
      <stop offset="1" stop-color="#171717"></stop>
    </linearGradient>
    <linearGradient
      gradientUnits="userSpaceOnUse"
      id="c"
      x1="13.999"
      x2="13.999"
      y1="1.212"
      y2="18.788"
    >
      <stop stop-color="#262626" stop-opacity="0.18"></stop>
      <stop offset="1" stop-color="#222"></stop>
    </linearGradient>
    <clipPath id="a"><path d="M0 0h28v20H0z" fill="#fff"></path></clipPath>
  </defs>
</svg>
